<svg width="24" height="25" viewBox="0 0 24 25" fill="none" xmlns="http://www.w3.org/2000/svg">
<path d="M17.25 12.3632C16.12 12.3643 15.0206 12.7299 14.115 13.4057L10.95 10.2407C11.6338 9.34174 12.0028 8.24272 12 7.11323C12.0029 5.93041 11.6064 4.78124 10.8746 3.85198C10.1428 2.92271 9.11862 2.26779 7.96807 1.99336C6.81752 1.71893 5.60801 1.84107 4.53556 2.33998C3.4631 2.8389 2.59055 3.68535 2.05931 4.74217C1.52807 5.79898 1.36926 7.00422 1.60864 8.16257C1.84801 9.32092 2.47154 10.3645 3.37816 11.1242C4.28479 11.8839 5.42138 12.3151 6.60375 12.3481C7.78611 12.381 8.94496 12.0137 9.89249 11.3057L13.05 14.4707C12.3422 15.418 11.9749 16.5765 12.0076 17.7585C12.0403 18.9406 12.4712 20.077 13.2303 20.9836C13.9895 21.8903 15.0325 22.5141 16.1904 22.754C17.3483 22.994 18.5533 22.836 19.6102 22.3056C20.6671 21.7753 21.514 20.9037 22.0137 19.8319C22.5135 18.7602 22.6368 17.5512 22.3637 16.4006C22.0905 15.2501 21.437 14.2255 20.5089 13.4927C19.5808 12.7599 18.4325 12.362 17.25 12.3632ZM2.99999 7.11323C2.99999 6.37155 3.21992 5.64652 3.63198 5.02984C4.04403 4.41316 4.6297 3.93251 5.31493 3.64868C6.00015 3.36485 6.75415 3.29059 7.48158 3.43528C8.20901 3.57998 8.87719 3.93713 9.40164 4.46158C9.92609 4.98603 10.2832 5.65421 10.4279 6.38164C10.5726 7.10907 10.4984 7.86307 10.2145 8.54829C9.93071 9.23351 9.45006 9.81918 8.83338 10.2312C8.21669 10.6433 7.49167 10.8632 6.74999 10.8632C5.75543 10.8632 4.8016 10.4681 4.09834 9.76488C3.39508 9.06162 2.99999 8.10779 2.99999 7.11323Z" fill="#01E4F0"/>
<path d="M17.25 12.3632C16.12 12.3643 15.0206 12.7299 14.115 13.4057L10.95 10.2407C11.6338 9.34174 12.0028 8.24272 12 7.11323C12.0029 5.93041 11.6064 4.78124 10.8746 3.85198C10.1428 2.92271 9.11862 2.26779 7.96807 1.99336C6.81752 1.71893 5.60801 1.84107 4.53556 2.33998C3.4631 2.8389 2.59055 3.68535 2.05931 4.74217C1.52807 5.79898 1.36926 7.00422 1.60864 8.16257C1.84801 9.32092 2.47154 10.3645 3.37816 11.1242C4.28479 11.8839 5.42138 12.3151 6.60375 12.3481C7.78611 12.381 8.94496 12.0137 9.89249 11.3057L13.05 14.4707C12.3422 15.418 11.9749 16.5765 12.0076 17.7585C12.0403 18.9406 12.4712 20.077 13.2303 20.9836C13.9895 21.8903 15.0325 22.5141 16.1904 22.754C17.3483 22.994 18.5533 22.836 19.6102 22.3056C20.6671 21.7753 21.514 20.9037 22.0137 19.8319C22.5135 18.7602 22.6368 17.5512 22.3637 16.4006C22.0905 15.2501 21.437 14.2255 20.5089 13.4927C19.5808 12.7599 18.4325 12.362 17.25 12.3632ZM2.99999 7.11323C2.99999 6.37155 3.21992 5.64652 3.63198 5.02984C4.04403 4.41316 4.6297 3.93251 5.31493 3.64868C6.00015 3.36485 6.75415 3.29059 7.48158 3.43528C8.20901 3.57998 8.87719 3.93713 9.40164 4.46158C9.92609 4.98603 10.2832 5.65421 10.4279 6.38164C10.5726 7.10907 10.4984 7.86307 10.2145 8.54829C9.93071 9.23351 9.45006 9.81918 8.83338 10.2312C8.21669 10.6433 7.49167 10.8632 6.74999 10.8632C5.75543 10.8632 4.8016 10.4681 4.09834 9.76488C3.39508 9.06162 2.99999 8.10779 2.99999 7.11323Z" fill="black" fill-opacity="0.05"/>
</svg>
