<svg width="121" height="37" viewBox="0 0 121 37" fill="none" xmlns="http://www.w3.org/2000/svg">
<path d="M12.2284 36.8183C10.2951 36.8183 8.59188 36.5068 7.11885 35.8838C5.67651 35.2608 4.44899 34.3887 3.43629 33.2673C2.45427 32.1459 1.71776 30.8221 1.22675 29.2958C0.735739 27.7384 0.490234 26.0252 0.490234 24.1562C0.490234 22.2873 0.751083 20.5741 1.27278 19.0167C1.82516 17.4592 2.59237 16.1198 3.57438 14.9984C4.5564 13.8459 5.75323 12.9582 7.16488 12.3352C8.60722 11.6811 10.203 11.354 11.9522 11.354C13.0263 11.354 14.1004 11.4475 15.1745 11.6343C16.2485 11.8212 17.2766 12.1172 18.2586 12.5221L17.2919 16.2132C16.6475 15.9018 15.8956 15.6526 15.0364 15.4657C14.2078 15.2788 13.3178 15.1853 12.3665 15.1853C9.97284 15.1853 8.13156 15.9485 6.84266 17.4748C5.58445 19.0011 4.95534 21.2282 4.95534 24.1562C4.95534 25.4645 5.09344 26.6637 5.36963 27.7539C5.67651 28.8441 6.13683 29.7786 6.75059 30.5573C7.39504 31.3361 8.20828 31.9435 9.19029 32.3796C10.1723 32.7845 11.3691 32.987 12.7808 32.987C13.9163 32.987 14.9443 32.8779 15.8649 32.6599C16.7856 32.4419 17.5068 32.2082 18.0284 31.959L18.6269 35.6035C18.3814 35.7592 18.0285 35.915 17.5681 36.0707C17.1078 36.1953 16.5861 36.3043 16.003 36.3978C15.42 36.5224 14.7909 36.6158 14.1157 36.6781C13.4713 36.7716 12.8422 36.8183 12.2284 36.8183Z" fill="#01E4F0"/>
<path d="M12.2284 36.8183C10.2951 36.8183 8.59188 36.5068 7.11885 35.8838C5.67651 35.2608 4.44899 34.3887 3.43629 33.2673C2.45427 32.1459 1.71776 30.8221 1.22675 29.2958C0.735739 27.7384 0.490234 26.0252 0.490234 24.1562C0.490234 22.2873 0.751083 20.5741 1.27278 19.0167C1.82516 17.4592 2.59237 16.1198 3.57438 14.9984C4.5564 13.8459 5.75323 12.9582 7.16488 12.3352C8.60722 11.6811 10.203 11.354 11.9522 11.354C13.0263 11.354 14.1004 11.4475 15.1745 11.6343C16.2485 11.8212 17.2766 12.1172 18.2586 12.5221L17.2919 16.2132C16.6475 15.9018 15.8956 15.6526 15.0364 15.4657C14.2078 15.2788 13.3178 15.1853 12.3665 15.1853C9.97284 15.1853 8.13156 15.9485 6.84266 17.4748C5.58445 19.0011 4.95534 21.2282 4.95534 24.1562C4.95534 25.4645 5.09344 26.6637 5.36963 27.7539C5.67651 28.8441 6.13683 29.7786 6.75059 30.5573C7.39504 31.3361 8.20828 31.9435 9.19029 32.3796C10.1723 32.7845 11.3691 32.987 12.7808 32.987C13.9163 32.987 14.9443 32.8779 15.8649 32.6599C16.7856 32.4419 17.5068 32.2082 18.0284 31.959L18.6269 35.6035C18.3814 35.7592 18.0285 35.915 17.5681 36.0707C17.1078 36.1953 16.5861 36.3043 16.003 36.3978C15.42 36.5224 14.7909 36.6158 14.1157 36.6781C13.4713 36.7716 12.8422 36.8183 12.2284 36.8183Z" fill="black" fill-opacity="0.05"/>
<path d="M38.1501 17.1008C37.6284 16.6647 36.8765 16.2442 35.8945 15.8392C34.9125 15.4343 33.8384 15.2318 32.6723 15.2318C31.4448 15.2318 30.386 15.4655 29.4961 15.9327C28.6368 16.3688 27.931 16.9918 27.3786 17.8016C26.8262 18.5804 26.4273 19.5148 26.1818 20.605C25.9362 21.6952 25.8135 22.8633 25.8135 24.1093C25.8135 26.9438 26.504 29.1398 27.8849 30.6973C29.2659 32.2236 31.1072 32.9867 33.4088 32.9867C34.5749 32.9867 35.5416 32.94 36.3088 32.8466C37.1067 32.722 37.7205 32.5974 38.1501 32.4728V17.1008ZM38.1501 0.747573L42.4311 0V35.5565C41.4491 35.8369 40.1908 36.1172 38.6564 36.3976C37.122 36.6779 35.3575 36.8181 33.3628 36.8181C31.5215 36.8181 29.8643 36.5222 28.3913 35.9303C26.9183 35.3385 25.6601 34.4975 24.6167 33.4073C23.5733 32.317 22.76 30.9932 22.177 29.4358C21.6246 27.8472 21.3484 26.0717 21.3484 24.1093C21.3484 22.2404 21.5785 20.5272 22.0389 18.9697C22.5299 17.4123 23.2357 16.0729 24.1563 14.9515C25.077 13.8301 26.1971 12.958 27.5167 12.335C28.867 11.712 30.4014 11.4005 32.1199 11.4005C33.5009 11.4005 34.713 11.5874 35.7564 11.9612C36.8305 12.335 37.6284 12.6932 38.1501 13.0358V0.747573Z" fill="#01E4F0"/>
<path d="M38.1501 17.1008C37.6284 16.6647 36.8765 16.2442 35.8945 15.8392C34.9125 15.4343 33.8384 15.2318 32.6723 15.2318C31.4448 15.2318 30.386 15.4655 29.4961 15.9327C28.6368 16.3688 27.931 16.9918 27.3786 17.8016C26.8262 18.5804 26.4273 19.5148 26.1818 20.605C25.9362 21.6952 25.8135 22.8633 25.8135 24.1093C25.8135 26.9438 26.504 29.1398 27.8849 30.6973C29.2659 32.2236 31.1072 32.9867 33.4088 32.9867C34.5749 32.9867 35.5416 32.94 36.3088 32.8466C37.1067 32.722 37.7205 32.5974 38.1501 32.4728V17.1008ZM38.1501 0.747573L42.4311 0V35.5565C41.4491 35.8369 40.1908 36.1172 38.6564 36.3976C37.122 36.6779 35.3575 36.8181 33.3628 36.8181C31.5215 36.8181 29.8643 36.5222 28.3913 35.9303C26.9183 35.3385 25.6601 34.4975 24.6167 33.4073C23.5733 32.317 22.76 30.9932 22.177 29.4358C21.6246 27.8472 21.3484 26.0717 21.3484 24.1093C21.3484 22.2404 21.5785 20.5272 22.0389 18.9697C22.5299 17.4123 23.2357 16.0729 24.1563 14.9515C25.077 13.8301 26.1971 12.958 27.5167 12.335C28.867 11.712 30.4014 11.4005 32.1199 11.4005C33.5009 11.4005 34.713 11.5874 35.7564 11.9612C36.8305 12.335 37.6284 12.6932 38.1501 13.0358V0.747573Z" fill="black" fill-opacity="0.05"/>
<path d="M76.0881 12.6621C77.0702 12.4129 78.3744 12.1481 80.0009 11.8678C81.6273 11.5874 83.4993 11.4473 85.6168 11.4473C87.5194 11.4473 89.0999 11.7276 90.3581 12.2883C91.6163 12.8178 92.6136 13.581 93.3502 14.5777C94.1174 15.5434 94.6544 16.7114 94.9613 18.082C95.2682 19.4525 95.4216 20.9633 95.4216 22.6142V36.2574H91.1406V23.5486C91.1406 22.0535 91.0332 20.7764 90.8184 19.7173C90.6343 18.6582 90.312 17.8017 89.8517 17.1475C89.3914 16.4934 88.7776 16.0262 88.0104 15.7458C87.2432 15.4343 86.2919 15.2786 85.1565 15.2786C84.6961 15.2786 84.2205 15.2942 83.7295 15.3253C83.2384 15.3565 82.7628 15.4032 82.3025 15.4655C81.8728 15.4966 81.4739 15.5434 81.1056 15.6056C80.7681 15.6679 80.5226 15.7147 80.3691 15.7458V36.2574H76.0881V12.6621Z" fill="#01E4F0"/>
<path d="M76.0881 12.6621C77.0702 12.4129 78.3744 12.1481 80.0009 11.8678C81.6273 11.5874 83.4993 11.4473 85.6168 11.4473C87.5194 11.4473 89.0999 11.7276 90.3581 12.2883C91.6163 12.8178 92.6136 13.581 93.3502 14.5777C94.1174 15.5434 94.6544 16.7114 94.9613 18.082C95.2682 19.4525 95.4216 20.9633 95.4216 22.6142V36.2574H91.1406V23.5486C91.1406 22.0535 91.0332 20.7764 90.8184 19.7173C90.6343 18.6582 90.312 17.8017 89.8517 17.1475C89.3914 16.4934 88.7776 16.0262 88.0104 15.7458C87.2432 15.4343 86.2919 15.2786 85.1565 15.2786C84.6961 15.2786 84.2205 15.2942 83.7295 15.3253C83.2384 15.3565 82.7628 15.4032 82.3025 15.4655C81.8728 15.4966 81.4739 15.5434 81.1056 15.6056C80.7681 15.6679 80.5226 15.7147 80.3691 15.7458V36.2574H76.0881V12.6621Z" fill="black" fill-opacity="0.05"/>
<path d="M120.49 11.9614C119.293 16.5092 117.882 20.87 116.255 25.044C114.66 29.2179 113.11 32.9558 111.606 36.2576H107.739C106.236 32.9558 104.671 29.2179 103.044 25.044C101.448 20.87 100.052 16.5092 98.8552 11.9614H103.458C103.827 13.4877 104.256 15.123 104.747 16.8674C105.269 18.5806 105.806 20.2938 106.358 22.007C106.942 23.689 107.525 25.3243 108.108 26.9129C108.691 28.5015 109.243 29.9188 109.765 31.1648C110.287 29.9188 110.839 28.5015 111.422 26.9129C112.005 25.3243 112.573 23.689 113.125 22.007C113.708 20.2938 114.245 18.5806 114.736 16.8674C115.258 15.123 115.703 13.4877 116.071 11.9614H120.49Z" fill="#01E4F0"/>
<path d="M120.49 11.9614C119.293 16.5092 117.882 20.87 116.255 25.044C114.66 29.2179 113.11 32.9558 111.606 36.2576H107.739C106.236 32.9558 104.671 29.2179 103.044 25.044C101.448 20.87 100.052 16.5092 98.8552 11.9614H103.458C103.827 13.4877 104.256 15.123 104.747 16.8674C105.269 18.5806 105.806 20.2938 106.358 22.007C106.942 23.689 107.525 25.3243 108.108 26.9129C108.691 28.5015 109.243 29.9188 109.765 31.1648C110.287 29.9188 110.839 28.5015 111.422 26.9129C112.005 25.3243 112.573 23.689 113.125 22.007C113.708 20.2938 114.245 18.5806 114.736 16.8674C115.258 15.123 115.703 13.4877 116.071 11.9614H120.49Z" fill="black" fill-opacity="0.05"/>
<rect x="48.9021" y="32.3076" width="20.7144" height="3.95" rx="1.975" fill="#01E4F0"/>
<rect x="48.9021" y="32.3076" width="20.7144" height="3.95" rx="1.975" fill="black" fill-opacity="0.05"/>
<rect x="48.9021" y="3.87793" width="20.7144" height="3.95" rx="1.975" fill="#01E4F0"/>
<rect x="48.9021" y="3.87793" width="20.7144" height="3.95" rx="1.975" fill="black" fill-opacity="0.05"/>
<rect x="50.2124" y="17.1929" width="14.7852" height="3.95" rx="1.975" fill="#01E4F0"/>
<rect x="50.2124" y="17.1929" width="14.7852" height="3.95" rx="1.975" fill="black" fill-opacity="0.05"/>
</svg>
