<svg width="25" height="25" viewBox="0 0 25 25" fill="none" xmlns="http://www.w3.org/2000/svg">
<path d="M18.7902 6.52857C18.4002 6.13857 17.7702 6.13857 17.3802 6.52857L12.4902 11.4086L7.60021 6.51857C7.21021 6.12857 6.58021 6.12857 6.19021 6.51857C5.80021 6.90857 5.80021 7.53857 6.19021 7.92857L11.0802 12.8186L6.19021 17.7086C5.80021 18.0986 5.80021 18.7286 6.19021 19.1186C6.58021 19.5086 7.21021 19.5086 7.60021 19.1186L12.4902 14.2286L17.3802 19.1186C17.7702 19.5086 18.4002 19.5086 18.7902 19.1186C19.1802 18.7286 19.1802 18.0986 18.7902 17.7086L13.9002 12.8186L18.7902 7.92857C19.1702 7.54857 19.1702 6.90857 18.7902 6.52857Z" fill="#1A254A"/>
</svg>
