<svg width="24" height="25" viewBox="0 0 24 25" fill="none" xmlns="http://www.w3.org/2000/svg">
<path fill-rule="evenodd" clip-rule="evenodd" d="M14 22.356H10C9.2 22.356 8.398 21.233 7.726 19.63L5 22.356L4 21.356V17.356L6.383 14.973C6.14 13.681 6 12.413 6 11.356C6 7.35596 9 2.35596 12 2.35596C15 2.35596 18 7.35596 18 11.356C18 12.414 17.86 13.681 17.617 14.973L20 17.356V21.356L19 22.356L16.274 19.63C15.602 21.233 14.801 22.356 14 22.356ZM12 20.356H10.385C10.3213 20.2759 10.2616 20.1928 10.206 20.107C9.859 19.575 9.486 18.742 9.147 17.724C8.455 15.646 8 13.111 8 11.356C8 8.15796 10.444 4.35596 12 4.35596C13.556 4.35596 16 8.15796 16 11.356C16 13.111 15.545 15.647 14.853 17.724C14.513 18.742 14.141 19.574 13.793 20.107C13.7378 20.1928 13.6784 20.2759 13.615 20.356H12ZM12 12.356C12.5304 12.356 13.0391 12.1452 13.4142 11.7702C13.7893 11.3951 14 10.8864 14 10.356C14 9.82552 13.7893 9.31682 13.4142 8.94174C13.0391 8.56667 12.5304 8.35596 12 8.35596C11.4696 8.35596 10.9609 8.56667 10.5858 8.94174C10.2107 9.31682 10 9.82552 10 10.356C10 10.8864 10.2107 11.3951 10.5858 11.7702C10.9609 12.1452 11.4696 12.356 12 12.356Z" fill="#01E4F0"/>
<path fill-rule="evenodd" clip-rule="evenodd" d="M14 22.356H10C9.2 22.356 8.398 21.233 7.726 19.63L5 22.356L4 21.356V17.356L6.383 14.973C6.14 13.681 6 12.413 6 11.356C6 7.35596 9 2.35596 12 2.35596C15 2.35596 18 7.35596 18 11.356C18 12.414 17.86 13.681 17.617 14.973L20 17.356V21.356L19 22.356L16.274 19.63C15.602 21.233 14.801 22.356 14 22.356ZM12 20.356H10.385C10.3213 20.2759 10.2616 20.1928 10.206 20.107C9.859 19.575 9.486 18.742 9.147 17.724C8.455 15.646 8 13.111 8 11.356C8 8.15796 10.444 4.35596 12 4.35596C13.556 4.35596 16 8.15796 16 11.356C16 13.111 15.545 15.647 14.853 17.724C14.513 18.742 14.141 19.574 13.793 20.107C13.7378 20.1928 13.6784 20.2759 13.615 20.356H12ZM12 12.356C12.5304 12.356 13.0391 12.1452 13.4142 11.7702C13.7893 11.3951 14 10.8864 14 10.356C14 9.82552 13.7893 9.31682 13.4142 8.94174C13.0391 8.56667 12.5304 8.35596 12 8.35596C11.4696 8.35596 10.9609 8.56667 10.5858 8.94174C10.2107 9.31682 10 9.82552 10 10.356C10 10.8864 10.2107 11.3951 10.5858 11.7702C10.9609 12.1452 11.4696 12.356 12 12.356Z" fill="black" fill-opacity="0.05"/>
</svg>
