<svg width="24" height="25" viewBox="0 0 24 25" fill="none" xmlns="http://www.w3.org/2000/svg">
<path d="M20.312 18.3897L17.297 7.91475C17.534 7.73138 17.7267 7.49693 17.8606 7.22885C17.9946 6.96076 18.0664 6.66592 18.0707 6.36626C18.075 6.0666 18.0117 5.76982 17.8856 5.49799C17.7594 5.22616 17.5735 4.98626 17.3419 4.79615C17.1102 4.60603 16.8386 4.47058 16.5474 4.39987C16.2562 4.32915 15.9528 4.32499 15.6597 4.3877C15.3666 4.45041 15.0915 4.57837 14.8547 4.76207C14.6179 4.94577 14.4256 5.18048 14.292 5.44875L5.98398 3.96975C5.92244 3.64146 5.77959 3.33384 5.56849 3.07502C5.35738 2.81619 5.08476 2.61441 4.77555 2.48814C4.46634 2.36186 4.1304 2.31512 3.79846 2.35218C3.46653 2.38925 3.14917 2.50893 2.87543 2.7003C2.60168 2.89166 2.38028 3.1486 2.23146 3.44762C2.08264 3.74663 2.01116 4.07818 2.02355 4.41195C2.03594 4.74573 2.1318 5.07107 2.30238 5.35823C2.47295 5.64539 2.7128 5.8852 2.99997 6.05575V18.6337C2.64346 18.8404 2.35979 19.1525 2.18807 19.5271C2.01634 19.9016 1.965 20.3202 2.04112 20.7252C2.11725 21.1302 2.31709 21.5016 2.61311 21.7882C2.90913 22.0749 3.28676 22.2627 3.69397 22.3257C3.79505 22.3436 3.89735 22.3537 3.99997 22.3557C4.34768 22.3549 4.68912 22.2631 4.99034 22.0894C5.29156 21.9158 5.54208 21.6663 5.71697 21.3657H18.263C18.4765 21.7298 18.8003 22.0166 19.1876 22.1846C19.5748 22.3526 20.0054 22.393 20.4172 22.3002C20.8289 22.2074 21.2005 21.986 21.4782 21.6681C21.7559 21.3502 21.9253 20.9523 21.962 20.5317C21.967 20.4727 21.98 20.4157 21.98 20.3557C21.9793 19.8837 21.8114 19.4272 21.506 19.0673C21.2006 18.7074 20.7776 18.4673 20.312 18.3897ZM5.77398 19.4497C5.72447 19.3518 5.66694 19.2582 5.60198 19.1697L9.44697 14.2527C9.67345 14.2987 9.9039 14.3221 10.135 14.3227C10.4566 14.3181 10.776 14.2686 11.084 14.1757L12.326 15.6537C12.1149 16.023 12.0026 16.4404 12 16.8657C12 16.9037 12.01 16.9388 12.011 16.9757C12.0378 17.6181 12.3117 18.2254 12.7754 18.6707C13.2392 19.116 13.857 19.365 14.5 19.3657C15.116 19.3654 15.7095 19.1346 16.164 18.7188L18.067 19.8177C18.061 19.8357 18.05 19.8528 18.045 19.8717H5.93497C5.89661 19.7257 5.84263 19.5842 5.77398 19.4497ZM14.999 8.02775C15.394 8.29669 15.8786 8.40009 16.349 8.31575L19.279 18.4887C19.1825 18.5285 19.0892 18.5756 19 18.6297L16.922 17.4297C16.9563 17.2869 16.9781 17.1414 16.987 16.9947C16.989 16.9517 17 16.9107 17 16.8657C17.0015 16.4015 16.8732 15.946 16.6296 15.5507C16.3859 15.1555 16.0366 14.8363 15.6211 14.6291C15.2056 14.4219 14.7404 14.335 14.2781 14.3783C13.8159 14.4215 13.3749 14.5931 13.005 14.8737L12.055 13.7437C12.7465 13.2924 13.2553 12.6101 13.4906 11.8186C13.726 11.027 13.6726 10.1776 13.34 9.42175L14.999 8.02775ZM5.90397 4.99375L14.082 6.44875C14.097 6.73676 14.1748 7.018 14.31 7.27275L12.782 8.55575C12.2471 7.91681 11.4988 7.49332 10.6757 7.3637C9.85255 7.23408 9.01033 7.40711 8.30498 7.85075L5.90498 4.99375H5.90397ZM4.02197 6.34375C4.49225 6.3422 4.94665 6.17348 5.30397 5.86775L7.52497 8.51075C7.17429 8.89968 6.91647 9.36315 6.77094 9.86621C6.62541 10.3693 6.59597 10.8988 6.68484 11.4149C6.77371 11.931 6.97858 12.4202 7.28399 12.8456C7.5894 13.271 7.9874 13.6215 8.44797 13.8707L4.80598 18.5278C4.55889 18.4184 4.29214 18.3606 4.02197 18.3577V6.34375Z" fill="#01E4F0"/>
<path d="M20.312 18.3897L17.297 7.91475C17.534 7.73138 17.7267 7.49693 17.8606 7.22885C17.9946 6.96076 18.0664 6.66592 18.0707 6.36626C18.075 6.0666 18.0117 5.76982 17.8856 5.49799C17.7594 5.22616 17.5735 4.98626 17.3419 4.79615C17.1102 4.60603 16.8386 4.47058 16.5474 4.39987C16.2562 4.32915 15.9528 4.32499 15.6597 4.3877C15.3666 4.45041 15.0915 4.57837 14.8547 4.76207C14.6179 4.94577 14.4256 5.18048 14.292 5.44875L5.98398 3.96975C5.92244 3.64146 5.77959 3.33384 5.56849 3.07502C5.35738 2.81619 5.08476 2.61441 4.77555 2.48814C4.46634 2.36186 4.1304 2.31512 3.79846 2.35218C3.46653 2.38925 3.14917 2.50893 2.87543 2.7003C2.60168 2.89166 2.38028 3.1486 2.23146 3.44762C2.08264 3.74663 2.01116 4.07818 2.02355 4.41195C2.03594 4.74573 2.1318 5.07107 2.30238 5.35823C2.47295 5.64539 2.7128 5.8852 2.99997 6.05575V18.6337C2.64346 18.8404 2.35979 19.1525 2.18807 19.5271C2.01634 19.9016 1.965 20.3202 2.04112 20.7252C2.11725 21.1302 2.31709 21.5016 2.61311 21.7882C2.90913 22.0749 3.28676 22.2627 3.69397 22.3257C3.79505 22.3436 3.89735 22.3537 3.99997 22.3557C4.34768 22.3549 4.68912 22.2631 4.99034 22.0894C5.29156 21.9158 5.54208 21.6663 5.71697 21.3657H18.263C18.4765 21.7298 18.8003 22.0166 19.1876 22.1846C19.5748 22.3526 20.0054 22.393 20.4172 22.3002C20.8289 22.2074 21.2005 21.986 21.4782 21.6681C21.7559 21.3502 21.9253 20.9523 21.962 20.5317C21.967 20.4727 21.98 20.4157 21.98 20.3557C21.9793 19.8837 21.8114 19.4272 21.506 19.0673C21.2006 18.7074 20.7776 18.4673 20.312 18.3897ZM5.77398 19.4497C5.72447 19.3518 5.66694 19.2582 5.60198 19.1697L9.44697 14.2527C9.67345 14.2987 9.9039 14.3221 10.135 14.3227C10.4566 14.3181 10.776 14.2686 11.084 14.1757L12.326 15.6537C12.1149 16.023 12.0026 16.4404 12 16.8657C12 16.9037 12.01 16.9388 12.011 16.9757C12.0378 17.6181 12.3117 18.2254 12.7754 18.6707C13.2392 19.116 13.857 19.365 14.5 19.3657C15.116 19.3654 15.7095 19.1346 16.164 18.7188L18.067 19.8177C18.061 19.8357 18.05 19.8528 18.045 19.8717H5.93497C5.89661 19.7257 5.84263 19.5842 5.77398 19.4497ZM14.999 8.02775C15.394 8.29669 15.8786 8.40009 16.349 8.31575L19.279 18.4887C19.1825 18.5285 19.0892 18.5756 19 18.6297L16.922 17.4297C16.9563 17.2869 16.9781 17.1414 16.987 16.9947C16.989 16.9517 17 16.9107 17 16.8657C17.0015 16.4015 16.8732 15.946 16.6296 15.5507C16.3859 15.1555 16.0366 14.8363 15.6211 14.6291C15.2056 14.4219 14.7404 14.335 14.2781 14.3783C13.8159 14.4215 13.3749 14.5931 13.005 14.8737L12.055 13.7437C12.7465 13.2924 13.2553 12.6101 13.4906 11.8186C13.726 11.027 13.6726 10.1776 13.34 9.42175L14.999 8.02775ZM5.90397 4.99375L14.082 6.44875C14.097 6.73676 14.1748 7.018 14.31 7.27275L12.782 8.55575C12.2471 7.91681 11.4988 7.49332 10.6757 7.3637C9.85255 7.23408 9.01033 7.40711 8.30498 7.85075L5.90498 4.99375H5.90397ZM4.02197 6.34375C4.49225 6.3422 4.94665 6.17348 5.30397 5.86775L7.52497 8.51075C7.17429 8.89968 6.91647 9.36315 6.77094 9.86621C6.62541 10.3693 6.59597 10.8988 6.68484 11.4149C6.77371 11.931 6.97858 12.4202 7.28399 12.8456C7.5894 13.271 7.9874 13.6215 8.44797 13.8707L4.80598 18.5278C4.55889 18.4184 4.29214 18.3606 4.02197 18.3577V6.34375Z" fill="black" fill-opacity="0.05"/>
</svg>
