<svg width="24" height="25" viewBox="0 0 24 25" fill="none" xmlns="http://www.w3.org/2000/svg">
<path d="M12.8123 1.71697C12.2951 1.48713 11.7049 1.48713 11.1877 1.71697L4.18772 4.82808C3.46547 5.14908 3 5.86533 3 6.6557V11.356C3 16.7355 6.60778 21.7769 11.5284 23.2289C11.8362 23.3197 12.1638 23.3197 12.4716 23.2289C17.3922 21.7769 21 16.7355 21 11.356V6.6557C21 5.86533 20.5345 5.14908 19.8123 4.82808L12.8123 1.71697Z" fill="#01E4F0"/>
<path d="M12.8123 1.71697C12.2951 1.48713 11.7049 1.48713 11.1877 1.71697L4.18772 4.82808C3.46547 5.14908 3 5.86533 3 6.6557V11.356C3 16.7355 6.60778 21.7769 11.5284 23.2289C11.8362 23.3197 12.1638 23.3197 12.4716 23.2289C17.3922 21.7769 21 16.7355 21 11.356V6.6557C21 5.86533 20.5345 5.14908 19.8123 4.82808L12.8123 1.71697Z" fill="black" fill-opacity="0.05"/>
</svg>
