<svg width="25" height="24" viewBox="0 0 25 24" fill="none" xmlns="http://www.w3.org/2000/svg">
<path d="M12.8691 10.7944C12.8691 10.5727 13.0072 10.3744 13.2151 10.2974L21.3334 7.29126C21.6795 7.16309 22.0474 7.41917 22.0474 7.7883V17.7425C22.0474 17.9642 21.9094 18.1625 21.7015 18.2395L13.5832 21.2456C13.237 21.3738 12.8691 21.1177 12.8691 20.7486V10.7944Z" fill="#283A8F"/>
<path d="M11.8779 10.7945C11.8779 10.5727 11.7399 10.3744 11.532 10.2974L3.41369 7.29133C3.06754 7.16315 2.69963 7.41923 2.69963 7.78836V17.7425C2.69963 17.9643 2.83766 18.1626 3.0456 18.2396L11.1639 21.2457C11.51 21.3738 11.8779 21.1178 11.8779 20.7486V10.7945Z" fill="#283A8F"/>
<path d="M12.2209 9.90517C12.345 9.95415 12.4829 9.95456 12.6072 9.90633L20.8996 6.68945C21.3659 6.50858 21.3452 5.84189 20.8687 5.69025L12.576 3.05159C12.4705 3.01804 12.3572 3.01833 12.252 3.05242L4.10429 5.69099C3.63129 5.84416 3.6105 6.50562 4.07294 6.6882L12.2209 9.90517Z" fill="#283A8F"/>
</svg>
